<svg viewBox="0 0 370 100.00000000000001" preserveAspectRatio="xMidYMid meet" class="css-8aabad" id="headbbfd"><defs id="SvgjsDefs9315"></defs><g id="SvgjsG9316" featurekey="v37d4h-0" transform="matrix(1.2500000000000002,0,0,-1.2500000000000002,-12.5,112.50000000000003)" fill="#fff"><path xmlns="http://www.w3.org/2000/svg" d="M63.503,40.169L39.121,64.551c-5.853,5.853-13.535,8.782-21.211,8.782H10v10C10,86.999,13.001,90,16.667,90h66.666  C86.999,90,90,86.999,90,83.333v-10H80c-9.206,0-16.667-7.461-16.667-16.666C63.333,47.461,70.794,40,80,40v6.667  c-5.524,0-10,4.473-10,10c0,5.521,4.476,10,10,10h10V35.612c-3.034-1.445-6.416-2.279-10-2.279  C73.558,33.333,67.725,35.944,63.503,40.169z"></path><path xmlns="http://www.w3.org/2000/svg" d="M83.333,10H16.667C13.001,10,10,13.001,10,16.667v36.666h7.91c2.761,0,5-2.239,5-5c0-2.76-2.239-5-5-5v-6.666  c6.442,0,11.667,5.228,11.667,11.666C29.577,54.772,24.353,60,17.91,60H10v6.667h7.91c5.97,0,11.943-2.279,16.497-6.83  l24.382-24.381c5.43-5.43,12.93-8.789,21.211-8.789c3.513,0,6.868,0.631,10,1.744V16.667C90,13.001,86.999,10,83.333,10z"></path></g><g id="SvgjsG9317" featurekey="UxBHKT-0" transform="matrix(3.6873154682478795,0,0,3.6873154682478795,114.83775975105219,3.964602958674565)" fill="#fff"><path d="M4.4 4.880000000000001 l0 8.8 l3.74 -4.62 l3.66 0 l-4.42 5.12 l4.6 5.82 l-3.62 0 l-2.88 -3.6 l-1.08 1.24 l0 2.36 l-3 0 l0 -15.12 l3 0 z M21.78 18.9 q-0.38 0.52 -1.31 0.93 t-2.03 0.41 q-1.7 0 -2.95 -0.76 t-1.91 -2.07 t-0.66 -2.91 t0.66 -2.91 t1.91 -2.07 t2.95 -0.76 q1.14 0 2.01 0.39 t1.33 0.99 l0 -1.14 l2.96 0 l0 11 l-2.96 0 l0 -1.1 z M21.08 12.25 q-0.82 -0.87 -2.2 -0.87 q-1.4 0 -2.21 0.87 t-0.81 2.25 q0 1.34 0.83 2.22 t2.19 0.88 q1.4 0 2.21 -0.83 t0.81 -2.27 q0 -1.38 -0.82 -2.25 z M36.91 10.02 q1.03 1.22 1.03 3.48 l0 6.5 l-3.06 0 l0 -6.5 q0 -2.22 -2.12 -2.22 q-0.82 0 -1.48 0.65 t-0.62 2.25 l0 5.82 l-2.98 0 l0 -11 l2.98 0 l0 0.98 q0.54 -0.54 1.36 -0.86 t1.58 -0.32 q2.28 0 3.31 1.22 z M40.24 18.54 l1.56 -2.08 q0.72 0.5 1.68 0.84 t1.88 0.34 q0.68 0 1.13 -0.28 t0.45 -0.7 t-0.51 -0.59 t-0.99 -0.24 t-0.62 -0.09 q-1.2 -0.2 -2.07 -0.48 t-1.58 -1 t-0.71 -1.98 q0 -2.08 1.51 -2.78 t3.03 -0.7 q1.3 0 2.4 0.38 t2.18 1.2 l-1.56 2.04 q-0.78 -0.46 -1.54 -0.74 t-1.58 -0.28 q-0.5 0 -0.97 0.22 t-0.47 0.6 q0 0.48 0.65 0.68 t1.43 0.3 q1.4 0.24 2.24 0.5 t1.49 0.97 t0.65 2.01 q0 1.72 -1.18 2.65 t-3.34 0.93 q-3 0 -5.16 -1.72 z M55.11 19.74 q-1.37 -0.54 -2.35 -1.83 t-0.98 -3.37 t0.99 -3.36 t2.37 -1.82 t2.62 -0.54 q1.44 0 2.74 0.64 t2.13 1.88 t0.87 2.94 q0 0.52 -0.02 0.9 t-0.04 0.48 l-8.68 0 q0.24 1.16 1.2 1.58 t1.8 0.42 q1.08 0 1.72 -0.39 t1.1 -0.89 l2.32 1.34 q-1.88 2.56 -5.14 2.56 q-1.28 0 -2.65 -0.54 z M55.72 12.05 q-0.78 0.61 -0.88 1.49 l5.5 0 q-0.06 -0.52 -0.4 -1 t-0.91 -0.79 t-1.29 -0.31 q-1.24 0 -2.02 0.61 z M68.72 7.369999999999999 q-0.48 0.47 -1.16 0.47 q-0.7 0 -1.19 -0.47 t-0.49 -1.15 q0 -0.66 0.49 -1.13 t1.19 -0.47 q0.68 0 1.16 0.47 t0.48 1.13 q0 0.68 -0.48 1.15 z M66.06 9.02 l3 0 l0 10.98 l-3 0 l0 -10.98 z"></path></g></svg>