<svg id="Layer_1" data-name="Layer 1" xmlns="http://www.w3.org/2000/svg" viewBox="0 0 600 800"><defs><style>.cls-1{fill:#1717e5;}.cls-2{fill:#fff;}</style></defs><path class="cls-1" d="M600,800H0V0H600Z"/><path class="cls-2" d="M163.47,597.86a37.45,37.45,0,0,0-12,1.6,16.83,16.83,0,0,0-8.14,6.65c-.08.08-1.07,1.75-3,5a38.66,38.66,0,0,1-4.51,6.59,20.17,20.17,0,0,1-4.44,3.45,11,11,0,0,1-4.52.74h-2.71l3.75-23.48a2.56,2.56,0,0,0-2.53-3h-13.2a2.55,2.55,0,0,0-2.53,2.16L100,658.94a2.56,2.56,0,0,0,2.53,3h13.27a2.57,2.57,0,0,0,2.54-2.18l3.37-22.45h2.71q7.14,0,9.57,6.28l5.14,16.55a2.55,2.55,0,0,0,2.44,1.8h14.86a2.56,2.56,0,0,0,2.42-3.39l-6.12-17.91q-5-10.73-10.26-12l.1-.49q5.86-1.49,10.06-8.38a19,19,0,0,1,3.71-4.43,7.76,7.76,0,0,1,4.59-1.11h0a2.57,2.57,0,0,0,2.48-1.9l3-11.26a2.57,2.57,0,0,0-2.48-3.22Z"/><path class="cls-2" d="M212.39,655.25a26.34,26.34,0,0,1-19.65,8.5q-9.12,0-14.46-4.8t-3.91-13.3q1.5-9.85,8.6-14.6t19.74-6.22q9.81-1.11,14.18-3l.32-1.48a9.12,9.12,0,0,0-1.46-6.59q-2-2.77-7.24-2.77-7.77,0-11.69,7.49a2.59,2.59,0,0,1-3.16,1.21l-10-3.49a2.59,2.59,0,0,1-1.47-3.55,25.86,25.86,0,0,1,11.06-12.13A38.05,38.05,0,0,1,211.8,596q27.84,0,23.37,27.22l-3.91,25.62q-1,6,.06,9.81a2.55,2.55,0,0,1-2.47,3.24H215.59a2.55,2.55,0,0,1-2.27-1.37A11.16,11.16,0,0,1,212.39,655.25Zm1.5-13.67,1.3-8.62a91.18,91.18,0,0,1-11.84,3.2q-9.66,1.85-10.43,8.25a4.86,4.86,0,0,0,1.13,4c.94,1,2.64,1.54,5.1,1.54a16.19,16.19,0,0,0,8.35-2.47A18.69,18.69,0,0,0,213.89,641.58Z"/><path class="cls-2" d="M266,661.9H252.69a2.56,2.56,0,0,1-2.54-2.95L259.31,600a2.57,2.57,0,0,1,2.54-2.17H274a2.57,2.57,0,0,1,2.53,2.95l-1,6.29Q283.85,596,295.18,596q23.15,0,19.16,26.61l-5.81,37.12A2.56,2.56,0,0,1,306,661.9H292.71a2.56,2.56,0,0,1-2.53-2.95l5.58-35.84q1.94-11.58-8-11.58a12.36,12.36,0,0,0-9,4.07q-4,4-5.2,11.45l-5,32.68A2.56,2.56,0,0,1,266,661.9Z"/><path class="cls-2" d="M329.38,643.08l11-1.81a2.57,2.57,0,0,1,2.89,1.88,7.48,7.48,0,0,0,2.88,4.1,13.86,13.86,0,0,0,8.45,2.34q11.46,0,12.47-6.41c.48-2.62-.89-4.31-4.12-5l-17-3.32a17.48,17.48,0,0,1-10.38-6.16q-3.66-4.68-2.45-12.19,1.61-10.35,9.87-15.4t20-5q11.56,0,18,6.22,5.67,5.47,4.8,13.86a2.57,2.57,0,0,1-2.55,2.34h-11a2.56,2.56,0,0,1-2.54-2.38,4.9,4.9,0,0,0-2.29-4,13.1,13.1,0,0,0-7.27-1.91,19,19,0,0,0-7.59,1.41,5.79,5.79,0,0,0-3.79,4.38c-.49,2.38.83,3.85,4,4.43l16.61,3.08a25,25,0,0,1,7.12,2.65,14.66,14.66,0,0,1,5.44,6.09q2.31,4.32,1.29,10.47a21.67,21.67,0,0,1-10,15.7q-8.37,5.36-21.18,5.36-11.58,0-18.43-5.73a16.57,16.57,0,0,1-6.31-12.23A2.58,2.58,0,0,1,329.38,643.08Z"/><path class="cls-2" d="M454.12,643.8a2.56,2.56,0,0,1,1.61,3.9q-10.35,16-30.84,16-13.42,0-21.24-8.56t-5.19-25.31a45.57,45.57,0,0,1,5-15.21A33.6,33.6,0,0,1,412.34,604a38.73,38.73,0,0,1,11.06-6,37,37,0,0,1,12.18-2q11,0,18.65,5.18t7.45,15.64q-.35,18.34-27.07,18.35H416.13q-.63,6.52,2.69,9.85t9.72,3.33q7.56,0,11.41-5.85a2.61,2.61,0,0,1,2.71-1.16Zm-21.45-32.39a14.94,14.94,0,0,0-14.26,11.21h16.87a8.89,8.89,0,0,0,5.55-1.54,4.6,4.6,0,0,0,1.76-4.25,4.88,4.88,0,0,0-3.1-4A15.35,15.35,0,0,0,432.67,611.41Z"/><path class="cls-2" d="M481.62,600,472.46,659A2.56,2.56,0,0,0,475,661.9h13.29a2.56,2.56,0,0,0,2.53-2.16L500,600.81a2.56,2.56,0,0,0-2.53-2.95H484.15A2.56,2.56,0,0,0,481.62,600Z"/><path class="cls-2" d="M427.25,140.2c-14.13,9.41-27.88,19.45-42.46,28.11-54.12,32.13-108.26,64.25-163,95.36-15.16,8.62-31.93,14.92-48.63,20.18-25,7.85-50.42-5.43-55.23-31.26-5-27-6.39-54.79-7.11-82.3-.81-31.34.27-31,31.49-31.31q138.3-1.14,276.6-2.73c2.25,0,4.5.25,6.75.39Z"/><path class="cls-2" d="M384.36,531.74c-63.12,0-124.66-.06-186.2.08-7.93,0-10.92-2.91-10.77-11,.83-42.5.53-85,2.27-127.49.46-11.24,4.83-23.45,10.8-33.11,14.19-23,42.81-20.77,60.59,1.71,42,53.12,81.19,108.48,121.48,163C383,525.53,383,526.6,384.36,531.74Z"/><path class="cls-2" d="M491.74,467.24c-9.41-10.4-16.76-17.11-22.41-25q-29.94-41.88-58.9-84.46c-19.75-28.92-17.51-44.06,10.32-65.88C441.69,275.46,463.36,260,487.47,242c2.14,8,4.62,13,4.69,18.08q1.3,92.49,1.9,185C494.11,451,492.86,457,491.74,467.24Z"/></svg>