<svg xmlns="http://www.w3.org/2000/svg" viewBox="0 0 694.92 467.03"><defs><style>.cls-1,.cls-2{fill:#000;stroke:#000;stroke-miterlimit:10;}.cls-1{stroke-width:4px;}</style></defs><g id="Layer_2" data-name="Layer 2"><g id="Layer_4" data-name="Layer 4"><path class="cls-1" d="M268.29,362H282v62.88l28.66-31.68H327l-30.51,32.09,32.09,38.68H311.84L282,427.87v36.07H268.29Z"/><path class="cls-1" d="M347.7,451.29a34.28,34.28,0,0,1-3.64-9.16,57.9,57.9,0,0,1-1.34-13.78,34,34,0,0,1,3.67-15.67A34.71,34.71,0,0,1,356,400.92q11.44-8.85,28.46-8.85,8.85,0,13.37.41l6.65.69v70.77H392.1l-.55-8.16q-4.11,5.49-12.55,8.16a21.8,21.8,0,0,1-6.62,1,32.43,32.43,0,0,1-6.68-.69,28.3,28.3,0,0,1-6.55-2.26,27,27,0,0,1-6.21-4.22A27.54,27.54,0,0,1,347.7,451.29Zm43-48a69.69,69.69,0,0,0-8.75-.55,31.16,31.16,0,0,0-9.29,1.54,21.37,21.37,0,0,0-8.43,4.84Q357,415.93,357,430q0,13.31,6.24,19.68a15.5,15.5,0,0,0,11.38,4.74,18.07,18.07,0,0,0,14.13-6.24,14.29,14.29,0,0,0,2-2.82Z"/><path class="cls-1" d="M465.3,403.87a26.91,26.91,0,0,0-18.18,6.92v53.15H433.41V393.17H446.1l1,7.68q11.18-8.78,23.11-8.78,12.61,0,18.51,7.54,6.18,8,6.17,25.65v38.68H481.14V425.26q0-17-9.19-20.3A19,19,0,0,0,465.3,403.87Z"/><path class="cls-1" d="M539.73,465a124.84,124.84,0,0,1-17.35-1.23V451.66a77.62,77.62,0,0,0,18.1,2.13q18.39,0,18.38-7.75a6,6,0,0,0-1.44-4.39,23.68,23.68,0,0,0-6.72-4.53l-10-4.59q-9.74-4.87-12.62-7.82a17.91,17.91,0,0,1-5.42-13q0-8.51,7.89-13.85,8.51-5.76,23.87-5.76a113.6,113.6,0,0,1,15.63,1.1v11.72a85.42,85.42,0,0,0-15-1.57,46.28,46.28,0,0,0-10,.82,15.76,15.76,0,0,0-5.31,2.06,5.78,5.78,0,0,0-2.81,5,6.58,6.58,0,0,0,2,4.94,28.07,28.07,0,0,0,6.14,4.08l10.08,4.87q9.87,5.13,12.69,7.88a17.56,17.56,0,0,1,5.35,13.1q0,8.43-8.51,13.58Q555.71,465,539.73,465Z"/><path class="cls-1" d="M632.68,465q-38.82,0-38.82-37.92,0-16.32,10.77-26.13a31.68,31.68,0,0,1,22.08-8.91q13.51,0,21.12,9.05,7.06,8.44,7.07,22.56V429H608.13q0,19.41,15.84,23.73a47.68,47.68,0,0,0,11.62,1,56.4,56.4,0,0,0,15.4-2.13v11.59A80.73,80.73,0,0,1,632.68,465Zm8.5-46.08a17.2,17.2,0,0,0-3.63-11.11q-4.26-5.2-11.73-5.21a17.2,17.2,0,0,0-12.82,5A15.64,15.64,0,0,0,608.47,419Z"/><path class="cls-1" d="M692.92,372.56a7.3,7.3,0,0,1-2.58,6,9.79,9.79,0,0,1-6.41,2.1,9.53,9.53,0,0,1-6.34-2.1,7.4,7.4,0,0,1-2.5-6,7.31,7.31,0,0,1,2.5-6,9.66,9.66,0,0,1,6.34-2.06,9.94,9.94,0,0,1,6.41,2.06A7.21,7.21,0,0,1,692.92,372.56Zm-16,20.61h13.71v70.77H676.87Z"/><path class="cls-1" d="M2,428.42q0-16.67,10.63-27,9.95-9.67,24.62-9.67,14.4,0,24.07,9.67,10.29,10.28,10.28,27T61.25,455.3A32.85,32.85,0,0,1,37.18,465a34,34,0,0,1-24.55-9.73Q2,445.09,2,428.42Zm14.26,0q0,17.55,11.25,23.86A19.48,19.48,0,0,0,37,454.47a18.5,18.5,0,0,0,9.4-2.22,19.17,19.17,0,0,0,6.31-5.87q4.59-7,4.59-18,0-17.43-11-23.87a17.76,17.76,0,0,0-9.19-2.26,18.54,18.54,0,0,0-9.29,2.23,19.41,19.41,0,0,0-6.48,5.86Q16.26,417.52,16.26,428.42Z"/><path class="cls-1" d="M127.38,403.87a26.86,26.86,0,0,0-18.17,6.92v53.15H95.5V393.17h12.68l1,7.68q11.17-8.78,23.11-8.78,12.62,0,18.52,7.54,6.16,8,6.17,25.65v38.68H143.23V425.26q0-17-9.19-20.3A19.07,19.07,0,0,0,127.38,403.87Z"/><path class="cls-1" d="M217.52,465q-38.82,0-38.81-37.92,0-16.32,10.76-26.13a31.68,31.68,0,0,1,22.08-8.91q13.51,0,21.13,9.05,7,8.44,7.06,22.56V429H193q0,19.41,15.84,23.73a47.77,47.77,0,0,0,11.63,1,56.38,56.38,0,0,0,15.39-2.13v11.59A80.73,80.73,0,0,1,217.52,465ZM226,419a17.2,17.2,0,0,0-3.63-11.11c-2.84-3.47-6.74-5.21-11.73-5.21a17.21,17.21,0,0,0-12.82,5A15.64,15.64,0,0,0,193.31,419Z"/><path class="cls-2" d="M398.09,113.63l-91.43,91.44A112.19,112.19,0,0,1,227.12,238H197.46v37.5a25.07,25.07,0,0,0,25,25h250a25.08,25.08,0,0,0,25-25V238H460a62.5,62.5,0,0,1,0-125v25a37.5,37.5,0,0,0,0,75h37.5V96.54a87.18,87.18,0,0,0-99.37,17.09Z"/><path class="cls-2" d="M472.46.5h-250a25.07,25.07,0,0,0-25,25V163h29.66a18.75,18.75,0,0,0,0-37.5v-25a43.75,43.75,0,0,1,0,87.5H197.46v25h29.66A87.22,87.22,0,0,0,289,187.39L380.42,96a112,112,0,0,1,117-26.42v-44A25.08,25.08,0,0,0,472.46.5Z"/></g></g></svg>
